<svg width="1024" height="1024" xmlns="http://www.w3.org/2000/svg">

 <g>
  <title>background</title>
  <rect fill="none" id="canvas_background" height="402" width="582" y="-1" x="-1"/>
 </g>
 <g>
  <title>Layer 1</title>
  <path fill="#00bf00" stroke-width="0" id="svg_1" d="m433,47.025322c105,282 -127,292 -254.918,471.315c-89.083,124.877 -104.082,399.685 216.918,471.685c-135,-71 -164,-277 -18,-406c-37.695,125.105 31.57,205.291 118.652,175.852c85.348,-28.852 140.8,32.442 139.348,102.148c-1,48 -16,85 -69,112c0,0 293,-56 293,-342c0,-174 -155,-198.125 -77,-344c-93,8 -125.111,68.779 -116,169c6,66 -63,111.333 -114,81.02c-41.425,-24.622 -40,-73.145 -4,-109.02c76.648,-76.381 107,-251 -115,-382z"/>
 </g>
</svg>